<svg xmlns="http://www.w3.org/2000/svg" viewBox="0 0 400 400" width="400" height="400">
  <rect width="400" height="400" fill="#1a1208"/>
  <rect x="20" y="20" width="360" height="360" fill="none" stroke="#c9a84c" stroke-width="1" stroke-dasharray="4,4"/>
  <line x1="133" y1="20" x2="133" y2="380" stroke="#3a2e1a" stroke-width="0.5"/>
  <line x1="266" y1="20" x2="266" y2="380" stroke="#3a2e1a" stroke-width="0.5"/>
  <line x1="20" y1="133" x2="380" y2="133" stroke="#3a2e1a" stroke-width="0.5"/>
  <line x1="20" y1="266" x2="380" y2="266" stroke="#3a2e1a" stroke-width="0.5"/>
  <!-- 전체 경로 -->
  <path d="M 60 300 Q 120 280 180 200 Q 220 150 280 160 Q 320 140 340 100 Q 330 70 200 60" stroke="#c9a84c" stroke-width="2" fill="none"/>
  <!-- 지점들 (완료) -->
  <circle cx="60" cy="300" r="6" fill="#8b7340"/>
  <circle cx="280" cy="160" r="8" fill="#8b7340"/>
  <text x="293" y="155" fill="#8b7340" font-size="10" font-family="serif">✓</text>
  <circle cx="340" cy="100" r="8" fill="#8b7340"/>
  <text x="353" y="95" fill="#8b7340" font-size="10" font-family="serif">✓</text>
  <!-- 최종 목적지 -->
  <circle cx="200" cy="60" r="14" fill="#c9a84c" opacity="0.9"/>
  <circle cx="200" cy="60" r="24" fill="none" stroke="#c9a84c" stroke-width="1" opacity="0.4"/>
  <text x="185" y="50" fill="#c9a84c" font-size="10" font-family="serif">목적지</text>
  <!-- 나침반 -->
  <text x="350" y="45" fill="#c9a84c" font-size="12" font-family="serif">N</text>
  <line x1="356" y1="48" x2="356" y2="60" stroke="#c9a84c" stroke-width="1"/>
</svg>
